<svg width="32" height="38" viewBox="0 0 32 38" fill="none" xmlns="http://www.w3.org/2000/svg">
<g filter="url(#filter0_d)">
<path d="M8.59749 16.0001C8.59948 13.9066 9.38002 11.8995 10.7678 10.4192C12.1556 8.93884 14.0373 8.10626 16 8.10414C17.2986 8.107 18.5739 8.47276 19.6988 9.16498C20.8237 9.8572 21.7589 10.8517 22.4112 12.0495L20.5375 13.2055L26.8212 9.33614C26.6596 9.02331 26.4261 8.75948 26.1425 8.56948L16.9612 2.91614C16.4312 2.58948 15.5662 2.58948 15.0375 2.91614L5.85624 8.56948C5.32874 8.89481 4.89624 9.69481 4.89624 10.3468V21.6535C4.89624 21.9801 5.00374 22.3428 5.17874 22.6641L9.58999 19.9468C8.93808 18.7479 8.59563 17.3861 8.59749 16.0001Z" fill="black"/>
<path d="M19.205 14.0253C18.8792 13.4263 18.4117 12.9288 17.8494 12.5825C17.287 12.2363 16.6494 12.0533 16 12.052C15.3509 12.0534 14.7135 12.2366 14.1516 12.5834C13.5898 12.9302 13.1232 13.4284 12.7986 14.028C12.474 14.6277 12.3029 15.3077 12.3022 16.0002C12.3016 16.6926 12.4715 17.373 12.795 17.9733L16 16L19.205 14.0253Z" fill="black"/>
<path d="M26.8212 9.33594L20.5137 13.2199L19.2062 14.0266L19.205 14.0253L16 15.9999L12.7962 17.9733C13.1212 18.573 13.5882 19.0712 14.1505 19.4177C14.7128 19.7643 15.3506 19.9472 16 19.9479C16.6497 19.9468 17.2877 19.7639 17.8504 19.4173C18.413 19.0708 18.8805 18.5729 19.2062 17.9733L22.41 19.9506C21.7578 21.1485 20.8226 22.1432 19.6977 22.8355C18.5728 23.5277 17.2974 23.8933 15.9987 23.8959C14.6994 23.8951 13.4232 23.5298 12.2981 22.8366C11.173 22.1434 10.2386 21.1467 9.58874 19.9466L5.17749 22.6639C5.35249 22.9866 5.59249 23.2679 5.85624 23.4306L15.0375 29.0839C15.5662 29.4106 16.4312 29.4106 16.9612 29.0839L26.1425 23.4306C26.4062 23.2679 26.6462 22.9866 26.8212 22.6639C26.9962 22.3426 27.1037 21.9799 27.1037 21.6533V10.3466C27.1037 10.0199 26.9962 9.65727 26.8212 9.33594ZM23.4025 16.4386H22.58V17.3159H21.7587V16.4386H20.9362V15.5613H21.7587V14.6839H22.58V15.5613H23.4025V16.4386ZM26.4875 16.4386H25.665V17.3159H24.8425V16.4386H24.0212V15.5613H24.8425V14.6839H25.665V15.5613H26.4875V16.4386Z" fill="black"/>
</g>
<defs>
<filter id="filter0_d" x="-3" y="0" width="38" height="40" filterUnits="userSpaceOnUse" color-interpolation-filters="sRGB">
<feFlood flood-opacity="0" result="BackgroundImageFix"/>
<feColorMatrix in="SourceAlpha" type="matrix" values="0 0 0 0 0 0 0 0 0 0 0 0 0 0 0 0 0 0 127 0"/>
<feOffset dy="4"/>
<feGaussianBlur stdDeviation="2"/>
<feColorMatrix type="matrix" values="0 0 0 0 0 0 0 0 0 0 0 0 0 0 0 0 0 0 0.25 0"/>
<feBlend mode="normal" in2="BackgroundImageFix" result="effect1_dropShadow"/>
<feBlend mode="normal" in="SourceGraphic" in2="effect1_dropShadow" result="shape"/>
</filter>
</defs>
</svg>
