<svg width="110" height="18" viewBox="0 0 110 18" fill="none" xmlns="http://www.w3.org/2000/svg">
<path d="M2.024 1.88V13H0.2V1.88H2.024ZM16.1308 1.88V13H14.3068V5.384L10.9148 13H9.65075L6.24275 5.384V13H4.41875V1.88H6.38675L10.2908 10.6L14.1788 1.88H16.1308ZM25.2321 10.728H20.5761L19.7761 13H17.8721L21.8561 1.864H23.9681L27.9521 13H26.0321L25.2321 10.728ZM24.7201 9.24L22.9121 4.072L21.0881 9.24H24.7201ZM36.8684 1.88V3.368H33.9084V13H32.0844V3.368H29.1084V1.88H36.8684ZM50.4276 1.88V13H48.6036V5.384L45.2116 13H43.9476L40.5396 5.384V13H38.7156V1.88H40.6836L44.5876 10.6L48.4756 1.88H50.4276ZM54.649 1.88V13H52.825V1.88H54.649Z" fill="#143560"/>
<path d="M58.8678 3.352V6.616H62.7078V8.104H58.8678V11.512H63.1878V13H57.0438V1.864H63.1878V3.352H58.8678ZM69.8824 4.04C70.5757 4.04 71.1944 4.184 71.7384 4.472C72.293 4.76 72.725 5.18667 73.0344 5.752C73.3437 6.31733 73.4984 7 73.4984 7.8V13H71.6904V8.072C71.6904 7.28267 71.493 6.68 71.0984 6.264C70.7037 5.83733 70.165 5.624 69.4824 5.624C68.7997 5.624 68.2557 5.83733 67.8504 6.264C67.4557 6.68 67.2584 7.28267 67.2584 8.072V13H65.4344V4.184H67.2584V5.192C67.557 4.82933 67.9357 4.54667 68.3944 4.344C68.8637 4.14133 69.3597 4.04 69.8824 4.04ZM79.377 4.04C80.0597 4.04 80.6623 4.17867 81.185 4.456C81.7183 4.72267 82.1343 5.05867 82.433 5.464V4.184H84.273V13.144C84.273 13.9547 84.1023 14.6747 83.761 15.304C83.4197 15.944 82.9237 16.4453 82.273 16.808C81.633 17.1707 80.865 17.352 79.969 17.352C78.7743 17.352 77.7823 17.0693 76.993 16.504C76.2037 15.9493 75.7557 15.192 75.649 14.232H77.457C77.5957 14.6907 77.889 15.0587 78.337 15.336C78.7957 15.624 79.3397 15.768 79.969 15.768C80.705 15.768 81.297 15.544 81.745 15.096C82.2037 14.648 82.433 13.9973 82.433 13.144V11.672C82.1237 12.088 81.7023 12.44 81.169 12.728C80.6463 13.0053 80.049 13.144 79.377 13.144C78.609 13.144 77.905 12.952 77.265 12.568C76.6357 12.1733 76.1343 11.6293 75.761 10.936C75.3983 10.232 75.217 9.43733 75.217 8.552C75.217 7.66667 75.3983 6.88267 75.761 6.2C76.1343 5.51733 76.6357 4.98933 77.265 4.616C77.905 4.232 78.609 4.04 79.377 4.04ZM82.433 8.584C82.433 7.976 82.305 7.448 82.049 7C81.8037 6.552 81.4783 6.21067 81.073 5.976C80.6677 5.74133 80.2303 5.624 79.761 5.624C79.2917 5.624 78.8543 5.74133 78.449 5.976C78.0437 6.2 77.713 6.536 77.457 6.984C77.2117 7.42133 77.089 7.944 77.089 8.552C77.089 9.16 77.2117 9.69333 77.457 10.152C77.713 10.6107 78.0437 10.9627 78.449 11.208C78.865 11.4427 79.3023 11.56 79.761 11.56C80.2303 11.56 80.6677 11.4427 81.073 11.208C81.4783 10.9733 81.8037 10.632 82.049 10.184C82.305 9.72533 82.433 9.192 82.433 8.584ZM87.5968 3.016C87.2661 3.016 86.9888 2.904 86.7648 2.68C86.5408 2.456 86.4288 2.17867 86.4288 1.848C86.4288 1.51733 86.5408 1.24 86.7648 1.016C86.9888 0.791999 87.2661 0.679999 87.5968 0.679999C87.9168 0.679999 88.1888 0.791999 88.4128 1.016C88.6368 1.24 88.7488 1.51733 88.7488 1.848C88.7488 2.17867 88.6368 2.456 88.4128 2.68C88.1888 2.904 87.9168 3.016 87.5968 3.016ZM88.4928 4.184V13H86.6688V4.184H88.4928ZM95.3355 4.04C96.0288 4.04 96.6475 4.184 97.1915 4.472C97.7462 4.76 98.1782 5.18667 98.4875 5.752C98.7968 6.31733 98.9515 7 98.9515 7.8V13H97.1435V8.072C97.1435 7.28267 96.9462 6.68 96.5515 6.264C96.1568 5.83733 95.6182 5.624 94.9355 5.624C94.2528 5.624 93.7088 5.83733 93.3035 6.264C92.9088 6.68 92.7115 7.28267 92.7115 8.072V13H90.8875V4.184H92.7115V5.192C93.0102 4.82933 93.3888 4.54667 93.8475 4.344C94.3168 4.14133 94.8128 4.04 95.3355 4.04ZM109.358 8.376C109.358 8.70667 109.337 9.00533 109.294 9.272H102.558C102.611 9.976 102.873 10.5413 103.342 10.968C103.811 11.3947 104.387 11.608 105.07 11.608C106.051 11.608 106.745 11.1973 107.15 10.376H109.118C108.851 11.1867 108.366 11.8533 107.662 12.376C106.969 12.888 106.105 13.144 105.07 13.144C104.227 13.144 103.47 12.9573 102.798 12.584C102.137 12.2 101.614 11.6667 101.23 10.984C100.857 10.2907 100.67 9.49067 100.67 8.584C100.67 7.67733 100.851 6.88267 101.214 6.2C101.587 5.50667 102.105 4.97333 102.766 4.6C103.438 4.22667 104.206 4.04 105.07 4.04C105.902 4.04 106.643 4.22133 107.294 4.584C107.945 4.94667 108.451 5.45867 108.814 6.12C109.177 6.77067 109.358 7.52267 109.358 8.376ZM107.454 7.8C107.443 7.128 107.203 6.58933 106.734 6.184C106.265 5.77867 105.683 5.576 104.99 5.576C104.361 5.576 103.822 5.77867 103.374 6.184C102.926 6.57867 102.659 7.11733 102.574 7.8H107.454Z" fill="#FB9542"/>
</svg>
