<svg width="55" height="55" viewBox="0 0 55 55" fill="none" xmlns="http://www.w3.org/2000/svg">
<path d="M27.3023 3.60949C15.0992 3.60949 15.8709 8.88605 15.8709 8.88605V14.3689H27.4759V16.0876H11.2492C11.2492 16.0876 3.4375 15.1251 3.4375 27.5087C3.4375 39.8923 10.3348 39.3887 10.3348 39.3887H14.3172V33.612C14.3172 33.612 14.0937 26.7146 21.0203 26.7146H32.6425C32.6425 26.7146 39.1256 26.8178 39.1256 20.4378V9.96887C39.1256 9.96887 40.1087 3.58887 27.3659 3.58887L27.3023 3.60949ZM20.888 7.28246C21.3005 7.27205 21.7069 7.38422 22.0557 7.60479C22.4046 7.82535 22.6801 8.1444 22.8476 8.52159C23.0151 8.89878 23.067 9.31716 22.9967 9.72383C22.9263 10.1305 22.737 10.5072 22.4526 10.8062C22.1682 11.1053 21.8015 11.3133 21.3989 11.404C20.9963 11.4946 20.5758 11.4638 20.1907 11.3155C19.8056 11.1672 19.4731 10.908 19.2353 10.5707C18.9975 10.2334 18.865 9.83316 18.8547 9.42059V9.38621C18.8547 8.83282 19.0745 8.30209 19.4658 7.91079C19.8571 7.51948 20.3879 7.29965 20.9412 7.29965L20.888 7.28246Z" fill="url(#paint0_linear)"/>
<path d="M27.6461 51.4079C39.8492 51.4079 39.0775 46.1141 39.0775 46.1141V40.6485H27.4742V38.9298H43.7508C43.7508 38.9298 51.5625 39.8029 51.5625 27.4915C51.5625 15.1801 44.6651 15.6115 44.6651 15.6115H40.6312V21.3126C40.6312 21.3126 40.8547 28.2099 33.9281 28.2099H22.3008C22.3008 28.2099 15.8125 28.1119 15.8125 34.4919V45.0313C15.8125 45.0313 14.8294 51.4113 27.5722 51.4113H27.6409L27.6461 51.4079ZM34.0605 47.7177C33.6479 47.7281 33.2415 47.616 32.8927 47.3954C32.5439 47.1748 32.2683 46.8558 32.1008 46.4786C31.9333 46.1014 31.8815 45.683 31.9518 45.2764C32.0221 44.8697 32.2114 44.493 32.4958 44.1939C32.7802 43.8949 33.1469 43.6869 33.5495 43.5962C33.9521 43.5056 34.3726 43.5363 34.7577 43.6847C35.1429 43.833 35.4753 44.0922 35.7132 44.4295C35.951 44.7668 36.0834 45.167 36.0937 45.5796V45.6312C36.0937 46.1845 35.8739 46.7153 35.4826 47.1066C35.0913 47.4979 34.5606 47.7177 34.0072 47.7177H34.0587H34.0605Z" fill="url(#paint1_linear)"/>
<defs>
<linearGradient id="paint0_linear" x1="8.19356" y1="8.28948" x2="31.03" y2="31.0742" gradientUnits="userSpaceOnUse">
<stop stop-color="#387EB8"/>
<stop offset="1" stop-color="#366994"/>
</linearGradient>
<linearGradient id="paint1_linear" x1="21.7035" y1="23.132" x2="47.7945" y2="45.9098" gradientUnits="userSpaceOnUse">
<stop stop-color="#FFE052"/>
<stop offset="1" stop-color="#FFC331"/>
</linearGradient>
</defs>
</svg>
