<svg width="26" height="27" viewBox="0 0 26 27" fill="none" xmlns="http://www.w3.org/2000/svg">
<path d="M13 2.25C7.02646 2.25 2.16663 7.29675 2.16663 13.5C2.16663 19.7033 7.02646 24.75 13 24.75C18.9735 24.75 23.8333 19.7033 23.8333 13.5C23.8333 7.29675 18.9735 2.25 13 2.25ZM13 22.5C8.22138 22.5 4.33329 18.4624 4.33329 13.5C4.33329 8.53763 8.22138 4.5 13 4.5C17.7785 4.5 21.6666 8.53763 21.6666 13.5C21.6666 18.4624 17.7785 22.5 13 22.5Z" fill="black"/>
<path d="M8.66663 18L14.0833 13.5L8.66663 9V18ZM14.0833 13.5V18H16.25V9H14.0833V13.5Z" fill="black"/>
</svg>
