<svg width="17" height="19" viewBox="0 0 17 19" fill="none" xmlns="http://www.w3.org/2000/svg">
<path d="M0.944444 10.5556H6.61111C6.86159 10.5556 7.10182 10.4443 7.27893 10.2464C7.45605 10.0484 7.55556 9.77995 7.55556 9.5V1.05556C7.55556 0.775605 7.45605 0.50712 7.27893 0.309165C7.10182 0.11121 6.86159 0 6.61111 0H0.944444C0.693962 0 0.453739 0.11121 0.276621 0.309165C0.0995036 0.50712 0 0.775605 0 1.05556V9.5C0 9.77995 0.0995036 10.0484 0.276621 10.2464C0.453739 10.4443 0.693962 10.5556 0.944444 10.5556ZM0 17.9444C0 18.2244 0.0995036 18.4929 0.276621 18.6908C0.453739 18.8888 0.693962 19 0.944444 19H6.61111C6.86159 19 7.10182 18.8888 7.27893 18.6908C7.45605 18.4929 7.55556 18.2244 7.55556 17.9444V13.7222C7.55556 13.4423 7.45605 13.1738 7.27893 12.9758C7.10182 12.7779 6.86159 12.6667 6.61111 12.6667H0.944444C0.693962 12.6667 0.453739 12.7779 0.276621 12.9758C0.0995036 13.1738 0 13.4423 0 13.7222V17.9444ZM9.44444 17.9444C9.44444 18.2244 9.54395 18.4929 9.72107 18.6908C9.89818 18.8888 10.1384 19 10.3889 19H16.0556C16.306 19 16.5463 18.8888 16.7234 18.6908C16.9005 18.4929 17 18.2244 17 17.9444V10.5556C17 10.2756 16.9005 10.0071 16.7234 9.80917C16.5463 9.61121 16.306 9.5 16.0556 9.5H10.3889C10.1384 9.5 9.89818 9.61121 9.72107 9.80917C9.54395 10.0071 9.44444 10.2756 9.44444 10.5556V17.9444ZM10.3889 7.38889H16.0556C16.306 7.38889 16.5463 7.27768 16.7234 7.07972C16.9005 6.88177 17 6.61328 17 6.33333V1.05556C17 0.775605 16.9005 0.50712 16.7234 0.309165C16.5463 0.11121 16.306 0 16.0556 0H10.3889C10.1384 0 9.89818 0.11121 9.72107 0.309165C9.54395 0.50712 9.44444 0.775605 9.44444 1.05556V6.33333C9.44444 6.61328 9.54395 6.88177 9.72107 7.07972C9.89818 7.27768 10.1384 7.38889 10.3889 7.38889Z" fill="#BDBDBD"/>
</svg>
