<svg width="19" height="21" viewBox="0 0 19 21" fill="none" xmlns="http://www.w3.org/2000/svg">
<path d="M17.3533 5.7925C17.273 5.57869 17.1193 5.40879 16.9258 5.32C16.8306 5.27516 16.7284 5.25138 16.625 5.25H12.6667C12.4567 5.25 12.2553 5.34219 12.1069 5.50628C11.9584 5.67038 11.875 5.89294 11.875 6.125C11.875 6.35706 11.9584 6.57962 12.1069 6.74372C12.2553 6.90781 12.4567 7 12.6667 7H14.7171L10.2917 11.8913L7.68708 9.00375C7.61348 8.92174 7.52592 8.85664 7.42945 8.81222C7.33298 8.7678 7.2295 8.74493 7.12499 8.74493C7.02048 8.74493 6.91701 8.7678 6.82054 8.81222C6.72406 8.85664 6.6365 8.92174 6.56291 9.00375L1.81291 14.2538C1.73871 14.3351 1.67981 14.4319 1.63962 14.5385C1.59943 14.6451 1.57874 14.7595 1.57874 14.875C1.57874 14.9905 1.59943 15.1049 1.63962 15.2115C1.67981 15.3181 1.73871 15.4149 1.81291 15.4962C1.8865 15.5783 1.97406 15.6434 2.07054 15.6878C2.16701 15.7322 2.27048 15.7551 2.37499 15.7551C2.4795 15.7551 2.58298 15.7322 2.67945 15.6878C2.77592 15.6434 2.86348 15.5783 2.93708 15.4962L7.12499 10.8587L9.72958 13.7463C9.80317 13.8283 9.89073 13.8934 9.9872 13.9378C10.0837 13.9822 10.1872 14.0051 10.2917 14.0051C10.3962 14.0051 10.4996 13.9822 10.5961 13.9378C10.6926 13.8934 10.7801 13.8283 10.8537 13.7463L15.8333 8.23375V10.5C15.8333 10.7321 15.9167 10.9546 16.0652 11.1187C16.2137 11.2828 16.415 11.375 16.625 11.375C16.835 11.375 17.0363 11.2828 17.1848 11.1187C17.3333 10.9546 17.4167 10.7321 17.4167 10.5V6.125C17.4154 6.01066 17.3939 5.89769 17.3533 5.7925Z" fill="#BDBDBD"/>
</svg>
